<svg xmlns="http://www.w3.org/2000/svg" viewBox="0 0 64 64" role="img" aria-label="TARA">
  <rect width="64" height="64" rx="14" fill="#175add"/>
  <!-- A delivery box with a motorcycle wheel: the two things every order here is. -->
  <path d="M14 22h24a3 3 0 0 1 3 3v13H14a3 3 0 0 1-3-3V25a3 3 0 0 1 3-3Z" fill="#fff"/>
  <path d="M41 28h6.2a3 3 0 0 1 2.6 1.5L53 35v3h-12v-10Z" fill="#fff" opacity=".85"/>
  <path d="M11 30h30" stroke="#175add" stroke-width="2.5" stroke-linecap="round"/>
  <circle cx="21" cy="44" r="6" fill="#fff"/>
  <circle cx="21" cy="44" r="2.4" fill="#175add"/>
  <circle cx="45" cy="44" r="6" fill="#fff"/>
  <circle cx="45" cy="44" r="2.4" fill="#175add"/>
</svg>
